<svg width="159" height="20" viewBox="0 0 159 20" fill="none" xmlns="http://www.w3.org/2000/svg">
<g opacity="0.8">
<line y1="9.5" x2="64" y2="9.5" stroke="#996830"/>
<path d="M80.28 15L84.242 5.158H85.796L89.744 15H87.714L84.662 6.922H85.362L82.268 15H80.28ZM82.38 13.166V11.57H87.672V13.166H82.38ZM93.7064 15V13.446H96.2684C96.7258 13.446 97.0804 13.306 97.3324 13.026C97.5938 12.746 97.7244 12.4147 97.7244 12.032C97.7244 11.7707 97.6684 11.5327 97.5564 11.318C97.4444 11.1033 97.2764 10.9353 97.0524 10.814C96.8378 10.6833 96.5764 10.618 96.2684 10.618H93.7064V9.078H96.0584C96.4504 9.078 96.7631 8.98 96.9964 8.784C97.2391 8.588 97.3604 8.294 97.3604 7.902C97.3604 7.50067 97.2391 7.202 96.9964 7.006C96.7631 6.81 96.4504 6.712 96.0584 6.712H93.7064V5.158H96.2824C96.9358 5.158 97.4818 5.27933 97.9204 5.522C98.3684 5.75533 98.7044 6.068 98.9284 6.46C99.1524 6.84267 99.2644 7.26267 99.2644 7.72C99.2644 8.28 99.0918 8.76533 98.7464 9.176C98.4104 9.57733 97.9158 9.876 97.2624 10.072L97.3464 9.456C98.0744 9.66133 98.6344 10.002 99.0264 10.478C99.4278 10.9447 99.6284 11.5093 99.6284 12.172C99.6284 12.6947 99.4978 13.1707 99.2364 13.6C98.9844 14.02 98.6111 14.3607 98.1164 14.622C97.6311 14.874 97.0384 15 96.3384 15H93.7064ZM92.3064 15V5.158H94.1964V15H92.3064ZM107.144 15.154C106.426 15.154 105.754 15.0233 105.128 14.762C104.512 14.5007 103.971 14.1413 103.504 13.684C103.047 13.2173 102.688 12.676 102.426 12.06C102.165 11.4347 102.034 10.7673 102.034 10.058C102.034 9.34867 102.16 8.69067 102.412 8.084C102.674 7.468 103.033 6.93133 103.49 6.474C103.957 6.00733 104.498 5.648 105.114 5.396C105.73 5.13467 106.398 5.004 107.116 5.004C107.844 5.004 108.516 5.13467 109.132 5.396C109.748 5.648 110.285 6.00733 110.742 6.474C111.209 6.93133 111.573 7.468 111.834 8.084C112.096 8.7 112.226 9.36267 112.226 10.072C112.226 10.7813 112.096 11.444 111.834 12.06C111.573 12.676 111.209 13.2173 110.742 13.684C110.285 14.1413 109.748 14.5007 109.132 14.762C108.526 15.0233 107.863 15.154 107.144 15.154ZM107.116 13.376C107.751 13.376 108.302 13.236 108.768 12.956C109.235 12.676 109.599 12.2887 109.86 11.794C110.131 11.2993 110.266 10.7207 110.266 10.058C110.266 9.57267 110.192 9.12933 110.042 8.728C109.893 8.32667 109.678 7.98133 109.398 7.692C109.118 7.39333 108.787 7.16467 108.404 7.006C108.022 6.84733 107.592 6.768 107.116 6.768C106.5 6.768 105.954 6.908 105.478 7.188C105.012 7.45867 104.643 7.84133 104.372 8.336C104.111 8.83067 103.98 9.40467 103.98 10.058C103.98 10.5527 104.055 11.0053 104.204 11.416C104.363 11.8267 104.578 12.1767 104.848 12.466C105.128 12.7553 105.46 12.9793 105.842 13.138C106.234 13.2967 106.659 13.376 107.116 13.376ZM119.014 15.14C118.239 15.14 117.548 14.972 116.942 14.636C116.344 14.2907 115.873 13.8193 115.528 13.222C115.182 12.6247 115.01 11.948 115.01 11.192V5.158H116.914V11.248C116.914 11.6867 117.002 12.0647 117.18 12.382C117.366 12.6993 117.618 12.9467 117.936 13.124C118.262 13.292 118.622 13.376 119.014 13.376C119.415 13.376 119.77 13.292 120.078 13.124C120.386 12.9467 120.628 12.6993 120.806 12.382C120.992 12.0647 121.086 11.6913 121.086 11.262V5.158H123.004V11.206C123.004 11.962 122.831 12.6387 122.486 13.236C122.14 13.824 121.669 14.2907 121.072 14.636C120.484 14.972 119.798 15.14 119.014 15.14ZM128.624 15V5.368H130.542V15H128.624ZM125.488 6.852V5.158H133.678V6.852H125.488ZM144.186 15.14C143.412 15.14 142.721 14.972 142.114 14.636C141.517 14.2907 141.046 13.8193 140.7 13.222C140.355 12.6247 140.182 11.948 140.182 11.192V5.158H142.086V11.248C142.086 11.6867 142.175 12.0647 142.352 12.382C142.539 12.6993 142.791 12.9467 143.108 13.124C143.435 13.292 143.794 13.376 144.186 13.376C144.588 13.376 144.942 13.292 145.25 13.124C145.558 12.9467 145.801 12.6993 145.978 12.382C146.165 12.0647 146.258 11.6913 146.258 11.262V5.158H148.176V11.206C148.176 11.962 148.004 12.6387 147.658 13.236C147.313 13.824 146.842 14.2907 146.244 14.636C145.656 14.972 144.97 15.14 144.186 15.14ZM154.203 15.14C153.41 15.14 152.728 15.0047 152.159 14.734C151.599 14.4633 151.09 14.0573 150.633 13.516L151.893 12.256C152.182 12.6387 152.518 12.9373 152.901 13.152C153.284 13.3573 153.75 13.46 154.301 13.46C154.796 13.46 155.188 13.362 155.477 13.166C155.776 12.97 155.925 12.6993 155.925 12.354C155.925 12.0553 155.841 11.8127 155.673 11.626C155.505 11.4393 155.281 11.2807 155.001 11.15C154.73 11.0193 154.427 10.9027 154.091 10.8C153.764 10.688 153.433 10.562 153.097 10.422C152.77 10.282 152.467 10.1093 152.187 9.904C151.916 9.68933 151.697 9.41867 151.529 9.092C151.361 8.756 151.277 8.336 151.277 7.832C151.277 7.23467 151.422 6.726 151.711 6.306C152 5.886 152.397 5.564 152.901 5.34C153.405 5.116 153.974 5.004 154.609 5.004C155.281 5.004 155.888 5.13 156.429 5.382C156.97 5.634 157.414 5.96067 157.759 6.362L156.499 7.622C156.21 7.30467 155.911 7.07133 155.603 6.922C155.304 6.77267 154.964 6.698 154.581 6.698C154.142 6.698 153.797 6.782 153.545 6.95C153.293 7.118 153.167 7.36067 153.167 7.678C153.167 7.94867 153.251 8.168 153.419 8.336C153.587 8.504 153.806 8.64867 154.077 8.77C154.357 8.89133 154.66 9.008 154.987 9.12C155.323 9.232 155.654 9.358 155.981 9.498C156.317 9.638 156.62 9.82 156.891 10.044C157.171 10.268 157.395 10.5573 157.563 10.912C157.731 11.2573 157.815 11.6867 157.815 12.2C157.815 13.1147 157.493 13.8333 156.849 14.356C156.205 14.8787 155.323 15.14 154.203 15.14Z" fill="#996830"/>
</g>
</svg>
