<svg width="116" height="79" viewBox="0 0 116 79" fill="none" xmlns="http://www.w3.org/2000/svg">
<path opacity="0.5" d="M22.112 74.0722C22.944 74.6642 23.608 75.0242 24.104 75.1522C24.6 75.2642 24.96 75.1682 25.184 74.8642C25.392 74.5602 25.504 74.0802 25.52 73.4242L26 73.5442C25.968 73.9922 25.952 74.4562 25.952 74.9362C25.936 75.4162 25.928 75.8642 25.928 76.2802C25.928 76.6802 25.936 77.0162 25.952 77.2882C25.952 77.5602 25.968 77.8242 26 78.0802L25.52 77.9602C25.44 77.6402 25.248 77.2802 24.944 76.8802C24.624 76.4962 24.12 76.0562 23.432 75.5602L8.888 65.2162C8.888 65.1522 8.888 65.0962 8.888 65.0482C8.888 64.9842 8.888 64.9202 8.888 64.8562L23.984 63.8962C24.56 63.8482 24.96 63.7042 25.184 63.4642C25.392 63.2082 25.504 62.9602 25.52 62.7202L26 62.8162C25.968 63.1362 25.952 63.5362 25.952 64.0162C25.936 64.4962 25.928 64.9682 25.928 65.4322C25.928 66.0082 25.936 66.5522 25.952 67.0642C25.952 67.5762 25.968 67.9922 26 68.3122L25.52 68.2162C25.488 67.4482 25.352 66.9042 25.112 66.5842C24.856 66.2642 24.32 66.1202 23.504 66.1522L11.648 66.8002L11.6 66.6322L22.112 74.0722ZM19.088 72.1522L19.088 65.1442L19.568 65.3362L19.568 72.5842L19.088 72.1522ZM24.344 53.7704C24.92 54.2984 25.4 54.8904 25.784 55.5464C26.152 56.1864 26.336 56.8744 26.336 57.6104C26.336 58.7144 26.056 59.4904 25.496 59.9384C24.936 60.3704 24.304 60.5864 23.6 60.5864C22.816 60.5864 22.008 60.3624 21.176 59.9144C20.344 59.4664 19.52 58.8824 18.704 58.1624C17.872 57.4264 17.08 56.6264 16.328 55.7624C15.576 54.8984 14.904 54.0584 14.312 53.2424L14.24 52.8584C14.336 53.1144 14.472 53.3864 14.648 53.6744C14.808 53.9624 14.976 54.2424 15.152 54.5144C15.312 54.7864 15.456 55.0504 15.584 55.3064C15.696 55.5624 15.752 55.8024 15.752 56.0264C15.752 56.3304 15.656 56.5944 15.464 56.8184C15.256 57.0264 15.152 57.2664 15.152 57.5384C15.152 57.7944 15.264 58.0104 15.488 58.1864C15.696 58.3624 16.08 58.5384 16.64 58.7144L17.528 59.0024L17.528 59.4584L15.776 58.9064C14.832 58.5864 14.192 58.2424 13.856 57.8744C13.504 57.4904 13.328 57.0904 13.328 56.6744C13.328 56.3704 13.408 56.1144 13.568 55.9064C13.728 55.6824 13.888 55.4664 14.048 55.2584C14.192 55.0344 14.264 54.7704 14.264 54.4664C14.264 54.0824 14.208 53.7384 14.096 53.4344C13.968 53.1304 13.776 52.8344 13.52 52.5464L13.064 52.2104L13.304 51.7064C14.232 52.8104 15.24 53.8584 16.328 54.8504C17.4 55.8424 18.536 56.6584 19.736 57.2984C20.92 57.9224 22.16 58.2344 23.456 58.2344C24.256 58.2344 24.816 58.1144 25.136 57.8744C25.456 57.6344 25.616 57.3144 25.616 56.9144C25.616 55.8904 25.04 54.8744 23.888 53.8664L24.344 53.7704ZM25.64 51.1064C25.64 50.3224 25.416 49.6424 24.968 49.0664C24.52 48.4744 23.944 47.9864 23.24 47.6024C22.52 47.2184 21.752 46.9304 20.936 46.7384C20.104 46.5304 19.312 46.4104 18.56 46.3784C17.792 46.3464 17.144 46.4024 16.616 46.5464C16.552 46.8504 16.44 47.1784 16.28 47.5304C16.104 47.8824 15.872 48.1864 15.584 48.4424C15.28 48.6984 14.912 48.8264 14.48 48.8264C14.064 48.8264 13.768 48.7144 13.592 48.4904C13.416 48.2664 13.328 48.0424 13.328 47.8184C13.328 47.5784 13.4 47.3704 13.544 47.1944C13.688 47.0024 13.888 46.8344 14.144 46.6904C14.4 46.5464 14.704 46.4184 15.056 46.3064C15.392 46.1944 15.76 46.1064 16.16 46.0424C16.88 45.8824 17.688 45.8184 18.584 45.8504C19.48 45.8824 20.384 46.0184 21.296 46.2584C22.192 46.4984 23.024 46.8584 23.792 47.3384C24.56 47.8184 25.176 48.4264 25.64 49.1624C26.104 49.8824 26.336 50.7464 26.336 51.7544C26.336 52.2664 26.24 52.7384 26.048 53.1704C25.856 53.6024 25.52 53.9544 25.04 54.2264C24.56 54.4824 23.896 54.6104 23.048 54.6104C22.344 54.6104 21.656 54.4984 20.984 54.2744C20.312 54.0344 19.704 53.7304 19.16 53.3624C18.616 52.9944 18.184 52.6104 17.864 52.2104C17.544 51.8104 17.384 51.4424 17.384 51.1064C17.384 50.8664 17.472 50.6904 17.648 50.5784C17.824 50.4504 18.048 50.3704 18.32 50.3384C18.576 50.2904 18.824 50.2664 19.064 50.2664C19.928 50.2664 20.808 50.5064 21.704 50.9864C22.6 51.4504 23.424 52.1784 24.176 53.1704L23.744 53.2904C23.152 52.5384 22.432 51.9384 21.584 51.4904C20.736 51.0424 19.888 50.8184 19.04 50.8184C18.72 50.8184 18.456 50.8504 18.248 50.9144C18.024 50.9784 17.912 51.0984 17.912 51.2744C17.912 51.5304 18.12 51.8184 18.536 52.1384C18.936 52.4584 19.456 52.7384 20.096 52.9784C20.72 53.2024 21.384 53.3144 22.088 53.3144C22.664 53.3144 23.224 53.2504 23.768 53.1224C24.312 52.9784 24.76 52.7464 25.112 52.4264C25.464 52.0904 25.64 51.6504 25.64 51.1064ZM25.568 41.3007C25.568 40.9167 25.328 40.4767 24.848 39.9807C24.352 39.4847 23.688 38.9807 22.856 38.4687C22.024 37.9567 21.08 37.4847 20.024 37.0527C18.968 36.6207 17.872 36.2767 16.736 36.0207L19.328 36.4287C21.888 37.3407 23.696 38.2607 24.752 39.1887C25.808 40.1007 26.336 41.0367 26.336 41.9967C26.336 42.7487 26.064 43.3167 25.52 43.7007C24.976 44.0687 24.28 44.2527 23.432 44.2527C22.664 44.2527 21.832 44.1247 20.936 43.8687C20.024 43.6127 19.12 43.2607 18.224 42.8127C17.328 42.3487 16.512 41.8207 15.776 41.2287C15.04 40.6367 14.448 39.9967 14 39.3087C13.552 38.6047 13.328 37.8927 13.328 37.1727C13.328 36.6127 13.608 36.1887 14.168 35.9007C14.712 35.5967 15.48 35.5327 16.472 35.7087L16.616 35.9727C15.768 35.8607 15.088 35.9167 14.576 36.1407C14.048 36.3647 13.784 36.7327 13.784 37.2447C13.784 37.7727 14.096 38.3247 14.72 38.9007C15.344 39.4607 16.16 39.9887 17.168 40.4847C18.16 40.9807 19.24 41.3807 20.408 41.6847C21.56 41.9887 22.664 42.1407 23.72 42.1407C24.408 42.1407 24.888 42.0687 25.16 41.9247C25.432 41.7647 25.568 41.5567 25.568 41.3007ZM13.664 35.2527C13.648 34.8687 13.616 34.4847 13.568 34.1007C13.52 33.7167 13.44 33.3647 13.328 33.0447L23.936 36.0447C24.08 36.0767 24.272 36.1247 24.512 36.1887C24.736 36.2367 24.944 36.2367 25.136 36.1887C25.328 36.1247 25.424 35.9567 25.424 35.6847C25.424 35.3647 25.248 35.0527 24.896 34.7487C24.544 34.4447 23.904 34.1407 22.976 33.8367L22.088 33.5487L22.088 33.0927L23.84 33.6927C24.8 34.0447 25.456 34.4767 25.808 34.9887C26.16 35.5007 26.336 35.9887 26.336 36.4527C26.336 37.0767 26.128 37.5167 25.712 37.7727C25.344 37.9807 24.92 38.0367 24.44 37.9407C23.944 37.8447 23.448 37.7327 22.952 37.6047L13.664 35.2527ZM26 29.0022L26 31.0902L15.704 28.2102C15.16 28.0502 14.776 28.0022 14.552 28.0662C14.328 28.1142 14.216 28.2742 14.216 28.5462C14.216 28.8982 14.4 29.2182 14.768 29.5062C15.136 29.7942 15.768 30.0982 16.664 30.4182L17.552 30.7302L17.552 31.1862L15.8 30.5862C14.792 30.2342 14.128 29.7862 13.808 29.2422C13.488 28.6982 13.328 28.1782 13.328 27.6822C13.328 27.0422 13.512 26.6422 13.88 26.4822C14.232 26.3062 14.664 26.2582 15.176 26.3382C15.688 26.4182 16.192 26.5222 16.688 26.6502L26 29.0022ZM13.928 22.8342C13.928 23.2022 14.104 23.5862 14.456 23.9862C14.792 24.3702 15.288 24.7702 15.944 25.1862C16.584 25.5862 17.36 25.9942 18.272 26.4102C19.168 26.8102 20.168 27.2102 21.272 27.6102C22.376 27.9942 23.568 28.3702 24.848 28.7382L21.776 28.1382C20.208 27.6102 18.888 27.1222 17.816 26.6742C16.744 26.2102 15.88 25.7542 15.224 25.3062C14.552 24.8582 14.072 24.4022 13.784 23.9382C13.48 23.4582 13.328 22.9542 13.328 22.4262C13.328 21.9782 13.456 21.6342 13.712 21.3942C13.968 21.1382 14.296 21.0102 14.696 21.0102C15.176 21.0102 15.584 21.1782 15.92 21.5142C16.256 21.8502 16.424 22.2422 16.424 22.6902C16.424 22.9622 16.352 23.1942 16.208 23.3862C16.048 23.5622 15.832 23.6502 15.56 23.6502C15.176 23.6502 14.856 23.5462 14.6 23.3382C14.344 23.1302 14.152 22.8742 14.024 22.5702C13.992 22.6022 13.968 22.6422 13.952 22.6902C13.936 22.7222 13.928 22.7702 13.928 22.8342ZM23.96 13.3002C24.328 13.4122 24.672 13.4602 24.992 13.4442C25.296 13.4122 25.448 13.2202 25.448 12.8682C25.448 12.5482 25.272 12.2522 24.92 11.9802C24.552 11.7082 23.912 11.4202 23 11.1162L22.112 10.8282L22.112 10.3722L23.864 10.9242C24.84 11.2282 25.496 11.6522 25.832 12.1962C26.168 12.7242 26.336 13.2282 26.336 13.7082C26.336 14.6682 25.88 15.1722 24.968 15.2202C24.712 15.2362 24.416 15.2202 24.08 15.1722C23.744 15.1082 23.376 15.0202 22.976 14.9082L9.992 11.4522C9.448 11.3082 9.048 11.3322 8.792 11.5242C8.536 11.7162 8.408 12.2042 8.408 12.9882L7.904 12.8442C7.888 11.9642 7.8 11.1882 7.64 10.5162C7.464 9.84425 7.224 9.20425 6.92 8.59625L23.96 13.3002ZM25.568 18.6762C25.568 18.2762 25.336 17.8282 24.872 17.3322C24.392 16.8202 23.752 16.3082 22.952 15.7962C22.136 15.2682 21.216 14.7882 20.192 14.3562C19.152 13.9082 18.08 13.5562 16.976 13.3002L19.568 13.6602C21.216 14.2842 22.536 14.9082 23.528 15.5322C24.52 16.1402 25.24 16.7642 25.688 17.4042C26.12 18.0282 26.336 18.6842 26.336 19.3722C26.336 20.1242 26.08 20.7322 25.568 21.1962C25.04 21.6442 24.24 21.8682 23.168 21.8682C22.4 21.8682 21.576 21.7482 20.696 21.5082C19.8 21.2522 18.92 20.8922 18.056 20.4282C17.192 19.9642 16.408 19.4122 15.704 18.7722C14.984 18.1162 14.408 17.3962 13.976 16.6122C13.544 15.8282 13.328 14.9962 13.328 14.1162C13.328 13.7482 13.472 13.4042 13.76 13.0842C14.032 12.7642 14.448 12.5882 15.008 12.5562L15.488 12.7482C14.912 12.8122 14.504 12.9722 14.264 13.2282C14.008 13.4842 13.88 13.7722 13.88 14.0922C13.88 14.8602 14.192 15.5882 14.816 16.2762C15.44 16.9482 16.248 17.5482 17.24 18.0762C18.232 18.5882 19.28 18.9962 20.384 19.3002C21.488 19.5882 22.52 19.7322 23.48 19.7322C24.184 19.7322 24.712 19.6442 25.064 19.4682C25.4 19.2922 25.568 19.0282 25.568 18.6762ZM25.64 7.73244C25.704 7.60444 25.76 7.46844 25.808 7.32444C25.84 7.16444 25.856 6.93244 25.856 6.62844C25.856 5.92444 25.648 5.34844 25.232 4.90044C24.8 4.43644 24.184 4.20444 23.384 4.20444C22.888 4.20444 22.4 4.30044 21.92 4.49244C21.424 4.66844 20.856 4.98844 20.216 5.45244C19.704 5.82044 19.184 6.17244 18.656 6.50844C18.112 6.84444 17.472 7.01244 16.736 7.01244C15.712 7.01244 14.888 6.65244 14.264 5.93244C13.64 5.19644 13.328 4.31644 13.328 3.29244C13.328 2.82844 13.384 2.37244 13.496 1.92444C13.608 1.47644 13.816 1.10844 14.12 0.820437C14.408 0.516436 14.84 0.364436 15.416 0.364436C15.64 0.364436 15.904 0.444436 16.208 0.604437C16.512 0.764436 16.664 1.05244 16.664 1.46844C16.664 1.72444 16.576 1.94844 16.4 2.14044C16.208 2.33244 15.96 2.42844 15.656 2.42844C15.368 2.42844 15.096 2.37244 14.84 2.26044C14.568 2.13244 14.304 1.96444 14.048 1.75644C13.856 2.06044 13.76 2.46044 13.76 2.95644C13.76 3.54844 13.96 4.04444 14.36 4.44444C14.76 4.84444 15.32 5.04444 16.04 5.04444C16.584 5.04444 17.048 4.92444 17.432 4.68444C17.8 4.42844 18.336 4.06844 19.04 3.60444C19.648 3.20444 20.232 2.86844 20.792 2.59644C21.352 2.32444 21.944 2.18844 22.568 2.18844C23.304 2.18844 23.96 2.38044 24.536 2.76444C25.096 3.13244 25.536 3.62844 25.856 4.25244C26.176 4.87644 26.336 5.56444 26.336 6.31644C26.336 6.86044 26.256 7.38044 26.096 7.87644C25.936 8.37244 25.688 8.78044 25.352 9.10044C25 9.40444 24.536 9.55644 23.96 9.55644C23.736 9.55644 23.504 9.48444 23.264 9.34044C23.008 9.21244 22.88 8.97244 22.88 8.62044C22.88 8.23644 23.04 7.96444 23.36 7.80444C23.664 7.64444 24.008 7.56444 24.392 7.56444C24.648 7.56444 24.88 7.58844 25.088 7.63644C25.28 7.66844 25.464 7.70044 25.64 7.73244Z" fill="white"/>
<line opacity="0.5" x1="52" y1="37.5" x2="116" y2="37.5" stroke="white"/>
</svg>
