<svg width="155" height="11" viewBox="0 0 155 11" fill="none" xmlns="http://www.w3.org/2000/svg">
<g opacity="0.7">
<path d="M69.9465 10.1091V0.477089H71.8645V10.1091H69.9465ZM66.8105 1.96109V0.26709H75.0005V1.96109H66.8105Z" fill="#444444"/>
<path d="M61.2405 10.249C60.5219 10.249 59.8545 10.123 59.2385 9.87104C58.6225 9.6097 58.0812 9.25037 57.6145 8.79304C57.1572 8.32637 56.8025 7.78504 56.5505 7.16904C56.3079 6.55304 56.1865 5.89037 56.1865 5.18104C56.1865 4.4717 56.3079 3.80904 56.5505 3.19304C56.8025 2.57704 57.1572 2.04037 57.6145 1.58304C58.0812 1.1257 58.6179 0.766371 59.2245 0.505037C59.8405 0.243704 60.5125 0.113037 61.2405 0.113037C62.0245 0.113037 62.7152 0.243704 63.3125 0.505037C63.9099 0.757037 64.4372 1.10704 64.8945 1.55504L63.6065 2.84304C63.3359 2.54437 63.0045 2.31104 62.6125 2.14304C62.2205 1.97504 61.7632 1.89104 61.2405 1.89104C60.7832 1.89104 60.3632 1.97037 59.9805 2.12904C59.6072 2.27837 59.2805 2.50237 59.0005 2.80104C58.7205 3.09037 58.5059 3.44037 58.3565 3.85104C58.2072 4.25237 58.1325 4.6957 58.1325 5.18104C58.1325 5.6757 58.2072 6.1237 58.3565 6.52504C58.5059 6.92637 58.7205 7.27637 59.0005 7.57504C59.2805 7.86437 59.6072 8.08837 59.9805 8.24704C60.3632 8.4057 60.7832 8.48504 61.2405 8.48504C61.7912 8.48504 62.2625 8.40104 62.6545 8.23304C63.0559 8.06504 63.3919 7.82704 63.6625 7.51904L64.9505 8.80704C64.4932 9.26437 63.9612 9.61904 63.3545 9.87104C62.7479 10.123 62.0432 10.249 61.2405 10.249Z" fill="#444444"/>
<path d="M47.0322 10.1091V0.26709H48.9362V10.1091H47.0322ZM48.4322 10.1091V8.42909H53.8782V10.1091H48.4322ZM48.4322 5.89509V4.27109H53.3882V5.89509H48.4322ZM48.4322 1.94709V0.26709H53.8082V1.94709H48.4322Z" fill="#444444"/>
<path d="M35.4609 10.1091V0.26709H36.7909L37.3649 2.17109V10.1091H35.4609ZM42.2649 10.1091L36.4269 2.54909L36.7909 0.26709L42.6289 7.82709L42.2649 10.1091ZM42.2649 10.1091L41.7189 8.26109V0.26709H43.6369V10.1091H42.2649Z" fill="#444444"/>
<path d="M23.8887 10.1091V0.26709H25.2187L25.7927 2.17109V10.1091H23.8887ZM30.6927 10.1091L24.8547 2.54909L25.2187 0.26709L31.0567 7.82709L30.6927 10.1091ZM30.6927 10.1091L30.1467 8.26109V0.26709H32.0647V10.1091H30.6927Z" fill="#444444"/>
<path d="M15.8971 10.263C15.1784 10.263 14.5064 10.1324 13.8811 9.87104C13.2651 9.6097 12.7238 9.25037 12.2571 8.79304C11.7998 8.32637 11.4404 7.78504 11.1791 7.16904C10.9178 6.5437 10.7871 5.87637 10.7871 5.16704C10.7871 4.4577 10.9131 3.7997 11.1651 3.19304C11.4264 2.57704 11.7858 2.04037 12.2431 1.58304C12.7098 1.11637 13.2511 0.757037 13.8671 0.505037C14.4831 0.243704 15.1504 0.113037 15.8691 0.113037C16.5971 0.113037 17.2691 0.243704 17.8851 0.505037C18.5011 0.757037 19.0378 1.11637 19.4951 1.58304C19.9618 2.04037 20.3258 2.57704 20.5871 3.19304C20.8484 3.80904 20.9791 4.4717 20.9791 5.18104C20.9791 5.89037 20.8484 6.55304 20.5871 7.16904C20.3258 7.78504 19.9618 8.32637 19.4951 8.79304C19.0378 9.25037 18.5011 9.6097 17.8851 9.87104C17.2784 10.1324 16.6158 10.263 15.8971 10.263ZM15.8691 8.48504C16.5038 8.48504 17.0544 8.34504 17.5211 8.06504C17.9878 7.78504 18.3518 7.3977 18.6131 6.90304C18.8838 6.40837 19.0191 5.8297 19.0191 5.16704C19.0191 4.6817 18.9444 4.23837 18.7951 3.83704C18.6458 3.4357 18.4311 3.09037 18.1511 2.80104C17.8711 2.50237 17.5398 2.2737 17.1571 2.11504C16.7744 1.95637 16.3451 1.87704 15.8691 1.87704C15.2531 1.87704 14.7071 2.01704 14.2311 2.29704C13.7644 2.5677 13.3958 2.95037 13.1251 3.44504C12.8638 3.9397 12.7331 4.5137 12.7331 5.16704C12.7331 5.6617 12.8078 6.11437 12.9571 6.52504C13.1158 6.9357 13.3304 7.2857 13.6011 7.57504C13.8811 7.86437 14.2124 8.08837 14.5951 8.24704C14.9871 8.4057 15.4118 8.48504 15.8691 8.48504Z" fill="#444444"/>
<path d="M5.2542 10.249C4.53553 10.249 3.8682 10.123 3.2522 9.87104C2.6362 9.6097 2.09486 9.25037 1.6282 8.79304C1.17086 8.32637 0.816195 7.78504 0.564195 7.16904C0.321529 6.55304 0.200195 5.89037 0.200195 5.18104C0.200195 4.4717 0.321529 3.80904 0.564195 3.19304C0.816195 2.57704 1.17086 2.04037 1.6282 1.58304C2.09486 1.1257 2.63153 0.766371 3.2382 0.505037C3.8542 0.243704 4.5262 0.113037 5.2542 0.113037C6.0382 0.113037 6.72886 0.243704 7.3262 0.505037C7.92353 0.757037 8.45086 1.10704 8.9082 1.55504L7.6202 2.84304C7.34953 2.54437 7.0182 2.31104 6.6262 2.14304C6.2342 1.97504 5.77686 1.89104 5.2542 1.89104C4.79686 1.89104 4.37686 1.97037 3.9942 2.12904C3.62086 2.27837 3.2942 2.50237 3.0142 2.80104C2.7342 3.09037 2.51953 3.44037 2.3702 3.85104C2.22086 4.25237 2.1462 4.6957 2.1462 5.18104C2.1462 5.6757 2.22086 6.1237 2.3702 6.52504C2.51953 6.92637 2.7342 7.27637 3.0142 7.57504C3.2942 7.86437 3.62086 8.08837 3.9942 8.24704C4.37686 8.4057 4.79686 8.48504 5.2542 8.48504C5.80486 8.48504 6.2762 8.40104 6.6682 8.23304C7.06953 8.06504 7.40553 7.82704 7.6762 7.51904L8.9642 8.80704C8.50686 9.26437 7.97486 9.61904 7.3682 9.87104C6.76153 10.123 6.05686 10.249 5.2542 10.249Z" fill="#444444"/>
<path fill-rule="evenodd" clip-rule="evenodd" d="M155 5.68799H91V4.68799H155V5.68799Z" fill="#444444"/>
</g>
</svg>
