<svg width="203" height="21" viewBox="0 0 203 21" fill="none" xmlns="http://www.w3.org/2000/svg">
<g opacity="0.8">
<line y1="10.48" x2="64" y2="10.48" stroke="#996830"/>
<path d="M82.408 11.864V10.38H84.69C85.1567 10.38 85.516 10.2633 85.768 10.03C86.0293 9.78731 86.16 9.45598 86.16 9.03598C86.16 8.65331 86.0293 8.33598 85.768 8.08398C85.516 7.82265 85.1567 7.69198 84.69 7.69198H82.408V6.13798H84.858C85.4927 6.13798 86.048 6.26398 86.524 6.51598C87.0093 6.75865 87.3827 7.09465 87.644 7.52398C87.9147 7.95331 88.05 8.44798 88.05 9.00798C88.05 9.58665 87.9147 10.0906 87.644 10.52C87.3827 10.94 87.0093 11.2713 86.524 11.514C86.0387 11.7473 85.474 11.864 84.83 11.864H82.408ZM81.008 15.98V6.13798H82.912V15.98H81.008ZM86.384 15.98L83.136 11.724L84.886 11.178L88.694 15.98H86.384ZM91.1717 15.98V6.13798H93.0757V15.98H91.1717ZM92.5717 15.98V14.3H98.0177V15.98H92.5717ZM92.5717 11.766V10.142H97.5277V11.766H92.5717ZM92.5717 7.81798V6.13798H97.9477V7.81798H92.5717ZM105.38 16.12C104.661 16.12 103.994 15.994 103.378 15.742C102.762 15.4806 102.22 15.1213 101.754 14.664C101.296 14.1973 100.942 13.656 100.69 13.04C100.447 12.424 100.326 11.7613 100.326 11.052C100.326 10.3426 100.447 9.67998 100.69 9.06398C100.942 8.44798 101.296 7.91131 101.754 7.45398C102.22 6.99665 102.757 6.63731 103.364 6.37598C103.98 6.11465 104.652 5.98398 105.38 5.98398C106.164 5.98398 106.854 6.11465 107.452 6.37598C108.049 6.62798 108.576 6.97798 109.034 7.42598L107.746 8.71398C107.475 8.41531 107.144 8.18198 106.752 8.01398C106.36 7.84598 105.902 7.76198 105.38 7.76198C104.922 7.76198 104.502 7.84131 104.12 7.99998C103.746 8.14931 103.42 8.37331 103.14 8.67198C102.86 8.96131 102.645 9.31131 102.496 9.72198C102.346 10.1233 102.272 10.5666 102.272 11.052C102.272 11.5466 102.346 11.9946 102.496 12.396C102.645 12.7973 102.86 13.1473 103.14 13.446C103.42 13.7353 103.746 13.9593 104.12 14.118C104.502 14.2766 104.922 14.356 105.38 14.356C105.93 14.356 106.402 14.272 106.794 14.104C107.195 13.936 107.531 13.698 107.802 13.39L109.09 14.678C108.632 15.1353 108.1 15.49 107.494 15.742C106.887 15.994 106.182 16.12 105.38 16.12ZM111.813 15.98V6.13798H113.717V15.98H111.813ZM113.213 15.98V14.3H118.659V15.98H113.213ZM113.213 11.766V10.142H118.169V11.766H113.213ZM113.213 7.81798V6.13798H118.589V7.81798H113.213ZM121.635 15.98V6.13798H122.965L123.539 8.04198V15.98H121.635ZM128.439 15.98L122.601 8.41998L122.965 6.13798L128.803 13.698L128.439 15.98ZM128.439 15.98L127.893 14.132V6.13798H129.811V15.98H128.439ZM135.643 15.98V6.34798H137.561V15.98H135.643ZM132.507 7.83198V6.13798H140.697V7.83198H132.507ZM149.82 15.98L146.628 6.13798H148.504L150.87 13.712H150.24L152.564 6.13798H153.978L156.302 13.712H155.658L158.038 6.13798H159.914L156.708 15.98H155.294L152.956 8.41998H153.572L151.248 15.98H149.82ZM166.828 16.134C166.109 16.134 165.437 16.0033 164.812 15.742C164.196 15.4806 163.654 15.1213 163.188 14.664C162.73 14.1973 162.371 13.656 162.11 13.04C161.848 12.4146 161.718 11.7473 161.718 11.038C161.718 10.3286 161.844 9.67065 162.096 9.06398C162.357 8.44798 162.716 7.91131 163.174 7.45398C163.64 6.98731 164.182 6.62798 164.798 6.37598C165.414 6.11465 166.081 5.98398 166.8 5.98398C167.528 5.98398 168.2 6.11465 168.816 6.37598C169.432 6.62798 169.968 6.98731 170.426 7.45398C170.892 7.91131 171.256 8.44798 171.518 9.06398C171.779 9.67998 171.91 10.3426 171.91 11.052C171.91 11.7613 171.779 12.424 171.518 13.04C171.256 13.656 170.892 14.1973 170.426 14.664C169.968 15.1213 169.432 15.4806 168.816 15.742C168.209 16.0033 167.546 16.134 166.828 16.134ZM166.8 14.356C167.434 14.356 167.985 14.216 168.452 13.936C168.918 13.656 169.282 13.2686 169.544 12.774C169.814 12.2793 169.95 11.7006 169.95 11.038C169.95 10.5526 169.875 10.1093 169.726 9.70798C169.576 9.30665 169.362 8.96131 169.082 8.67198C168.802 8.37331 168.47 8.14465 168.088 7.98598C167.705 7.82731 167.276 7.74798 166.8 7.74798C166.184 7.74798 165.638 7.88798 165.162 8.16798C164.695 8.43865 164.326 8.82131 164.056 9.31598C163.794 9.81065 163.664 10.3846 163.664 11.038C163.664 11.5326 163.738 11.9853 163.888 12.396C164.046 12.8066 164.261 13.1566 164.532 13.446C164.812 13.7353 165.143 13.9593 165.526 14.118C165.918 14.2766 166.342 14.356 166.8 14.356ZM176.219 11.864V10.38H178.501C178.968 10.38 179.327 10.2633 179.579 10.03C179.84 9.78731 179.971 9.45598 179.971 9.03598C179.971 8.65331 179.84 8.33598 179.579 8.08398C179.327 7.82265 178.968 7.69198 178.501 7.69198H176.219V6.13798H178.669C179.304 6.13798 179.859 6.26398 180.335 6.51598C180.82 6.75865 181.194 7.09465 181.455 7.52398C181.726 7.95331 181.861 8.44798 181.861 9.00798C181.861 9.58665 181.726 10.0906 181.455 10.52C181.194 10.94 180.82 11.2713 180.335 11.514C179.85 11.7473 179.285 11.864 178.641 11.864H176.219ZM174.819 15.98V6.13798H176.723V15.98H174.819ZM180.195 15.98L176.947 11.724L178.697 11.178L182.505 15.98H180.195ZM190.933 15.98L186.663 10.842L190.821 6.13798H193.201L188.567 11.248L188.581 10.366L193.355 15.98H190.933ZM184.983 15.98V6.13798H186.887V15.98H184.983ZM198.248 16.12C197.455 16.12 196.774 15.9846 196.204 15.714C195.644 15.4433 195.136 15.0373 194.678 14.496L195.938 13.236C196.228 13.6186 196.564 13.9173 196.946 14.132C197.329 14.3373 197.796 14.44 198.346 14.44C198.841 14.44 199.233 14.342 199.522 14.146C199.821 13.95 199.97 13.6793 199.97 13.334C199.97 13.0353 199.886 12.7926 199.718 12.606C199.55 12.4193 199.326 12.2606 199.046 12.13C198.776 11.9993 198.472 11.8826 198.136 11.78C197.81 11.668 197.478 11.542 197.142 11.402C196.816 11.262 196.512 11.0893 196.232 10.884C195.962 10.6693 195.742 10.3986 195.574 10.072C195.406 9.73598 195.322 9.31598 195.322 8.81198C195.322 8.21465 195.467 7.70598 195.756 7.28598C196.046 6.86598 196.442 6.54398 196.946 6.31998C197.45 6.09598 198.02 5.98398 198.654 5.98398C199.326 5.98398 199.933 6.10998 200.474 6.36198C201.016 6.61398 201.459 6.94065 201.804 7.34198L200.544 8.60198C200.255 8.28465 199.956 8.05131 199.648 7.90198C199.35 7.75265 199.009 7.67798 198.626 7.67798C198.188 7.67798 197.842 7.76198 197.59 7.92998C197.338 8.09798 197.212 8.34065 197.212 8.65798C197.212 8.92865 197.296 9.14798 197.464 9.31598C197.632 9.48398 197.852 9.62865 198.122 9.74998C198.402 9.87131 198.706 9.98798 199.032 10.1C199.368 10.212 199.7 10.338 200.026 10.478C200.362 10.618 200.666 10.8 200.936 11.024C201.216 11.248 201.44 11.5373 201.608 11.892C201.776 12.2373 201.86 12.6666 201.86 13.18C201.86 14.0946 201.538 14.8133 200.894 15.336C200.25 15.8586 199.368 16.12 198.248 16.12Z" fill="#996830"/>
</g>
</svg>
