<svg width="193" height="20" viewBox="0 0 193 20" fill="none" xmlns="http://www.w3.org/2000/svg">
<g opacity="0.8">
<line y1="9.5" x2="64" y2="9.5" stroke="#996830"/>
<path d="M85.614 15.154C84.8953 15.154 84.2233 15.0233 83.598 14.762C82.982 14.5007 82.4407 14.1413 81.974 13.684C81.5167 13.2173 81.1573 12.676 80.896 12.06C80.6347 11.4347 80.504 10.7673 80.504 10.058C80.504 9.34867 80.63 8.69067 80.882 8.084C81.1433 7.468 81.5027 6.93133 81.96 6.474C82.4267 6.00733 82.968 5.648 83.584 5.396C84.2 5.13467 84.8673 5.004 85.586 5.004C86.314 5.004 86.986 5.13467 87.602 5.396C88.218 5.648 88.7547 6.00733 89.212 6.474C89.6787 6.93133 90.0427 7.468 90.304 8.084C90.5653 8.7 90.696 9.36267 90.696 10.072C90.696 10.7813 90.5653 11.444 90.304 12.06C90.0427 12.676 89.6787 13.2173 89.212 13.684C88.7547 14.1413 88.218 14.5007 87.602 14.762C86.9953 15.0233 86.3327 15.154 85.614 15.154ZM85.586 13.376C86.2207 13.376 86.7713 13.236 87.238 12.956C87.7047 12.676 88.0687 12.2887 88.33 11.794C88.6007 11.2993 88.736 10.7207 88.736 10.058C88.736 9.57267 88.6613 9.12933 88.512 8.728C88.3627 8.32667 88.148 7.98133 87.868 7.692C87.588 7.39333 87.2567 7.16467 86.874 7.006C86.4913 6.84733 86.062 6.768 85.586 6.768C84.97 6.768 84.424 6.908 83.948 7.188C83.4813 7.45867 83.1127 7.84133 82.842 8.336C82.5807 8.83067 82.45 9.40467 82.45 10.058C82.45 10.5527 82.5247 11.0053 82.674 11.416C82.8327 11.8267 83.0473 12.1767 83.318 12.466C83.598 12.7553 83.9293 12.9793 84.312 13.138C84.704 13.2967 85.1287 13.376 85.586 13.376ZM97.4833 15.14C96.7086 15.14 96.0179 14.972 95.4113 14.636C94.8139 14.2907 94.3426 13.8193 93.9973 13.222C93.6519 12.6247 93.4793 11.948 93.4793 11.192V5.158H95.3833V11.248C95.3833 11.6867 95.4719 12.0647 95.6493 12.382C95.8359 12.6993 96.0879 12.9467 96.4053 13.124C96.7319 13.292 97.0913 13.376 97.4833 13.376C97.8846 13.376 98.2393 13.292 98.5473 13.124C98.8553 12.9467 99.0979 12.6993 99.2753 12.382C99.4619 12.0647 99.5553 11.6913 99.5553 11.262V5.158H101.473V11.206C101.473 11.962 101.301 12.6387 100.955 13.236C100.61 13.824 100.139 14.2907 99.5413 14.636C98.9533 14.972 98.2673 15.14 97.4833 15.14ZM106.153 10.884V9.4H108.435C108.902 9.4 109.261 9.28333 109.513 9.05C109.775 8.80733 109.905 8.476 109.905 8.056C109.905 7.67333 109.775 7.356 109.513 7.104C109.261 6.84267 108.902 6.712 108.435 6.712H106.153V5.158H108.603C109.238 5.158 109.793 5.284 110.269 5.536C110.755 5.77867 111.128 6.11467 111.389 6.544C111.66 6.97333 111.795 7.468 111.795 8.028C111.795 8.60667 111.66 9.11067 111.389 9.54C111.128 9.96 110.755 10.2913 110.269 10.534C109.784 10.7673 109.219 10.884 108.575 10.884H106.153ZM104.753 15V5.158H106.657V15H104.753ZM110.129 15L106.881 10.744L108.631 10.198L112.439 15H110.129ZM122.099 15.14C121.305 15.14 120.624 15.0047 120.055 14.734C119.495 14.4633 118.986 14.0573 118.529 13.516L119.789 12.256C120.078 12.6387 120.414 12.9373 120.797 13.152C121.179 13.3573 121.646 13.46 122.197 13.46C122.691 13.46 123.083 13.362 123.373 13.166C123.671 12.97 123.821 12.6993 123.821 12.354C123.821 12.0553 123.737 11.8127 123.569 11.626C123.401 11.4393 123.177 11.2807 122.897 11.15C122.626 11.0193 122.323 10.9027 121.987 10.8C121.66 10.688 121.329 10.562 120.993 10.422C120.666 10.282 120.363 10.1093 120.083 9.904C119.812 9.68933 119.593 9.41867 119.425 9.092C119.257 8.756 119.173 8.336 119.173 7.832C119.173 7.23467 119.317 6.726 119.607 6.306C119.896 5.886 120.293 5.564 120.797 5.34C121.301 5.116 121.87 5.004 122.505 5.004C123.177 5.004 123.783 5.13 124.325 5.382C124.866 5.634 125.309 5.96067 125.655 6.362L124.395 7.622C124.105 7.30467 123.807 7.07133 123.499 6.922C123.2 6.77267 122.859 6.698 122.477 6.698C122.038 6.698 121.693 6.782 121.441 6.95C121.189 7.118 121.063 7.36067 121.063 7.678C121.063 7.94867 121.147 8.168 121.315 8.336C121.483 8.504 121.702 8.64867 121.973 8.77C122.253 8.89133 122.556 9.008 122.883 9.12C123.219 9.232 123.55 9.358 123.877 9.498C124.213 9.638 124.516 9.82 124.787 10.044C125.067 10.268 125.291 10.5573 125.459 10.912C125.627 11.2573 125.711 11.6867 125.711 12.2C125.711 13.1147 125.389 13.8333 124.745 14.356C124.101 14.8787 123.219 15.14 122.099 15.14ZM128.613 15V5.158H130.517V15H128.613ZM130.013 15V13.32H135.459V15H130.013ZM130.013 10.786V9.162H134.969V10.786H130.013ZM130.013 6.838V5.158H135.389V6.838H130.013ZM139.835 10.884V9.4H142.117C142.584 9.4 142.943 9.28333 143.195 9.05C143.457 8.80733 143.587 8.476 143.587 8.056C143.587 7.67333 143.457 7.356 143.195 7.104C142.943 6.84267 142.584 6.712 142.117 6.712H139.835V5.158H142.285C142.92 5.158 143.475 5.284 143.951 5.536C144.437 5.77867 144.81 6.11467 145.071 6.544C145.342 6.97333 145.477 7.468 145.477 8.028C145.477 8.60667 145.342 9.11067 145.071 9.54C144.81 9.96 144.437 10.2913 143.951 10.534C143.466 10.7673 142.901 10.884 142.257 10.884H139.835ZM138.435 15V5.158H140.339V15H138.435ZM143.811 15L140.563 10.744L142.313 10.198L146.121 15H143.811ZM151.448 15L147.57 5.158H149.628L152.624 13.124H151.826L154.85 5.158H156.88L152.96 15H151.448ZM159.569 15V5.158H161.473V15H159.569ZM169.457 15.14C168.738 15.14 168.071 15.014 167.455 14.762C166.839 14.5007 166.298 14.1413 165.831 13.684C165.374 13.2173 165.019 12.676 164.767 12.06C164.524 11.444 164.403 10.7813 164.403 10.072C164.403 9.36267 164.524 8.7 164.767 8.084C165.019 7.468 165.374 6.93133 165.831 6.474C166.298 6.01667 166.834 5.65733 167.441 5.396C168.057 5.13467 168.729 5.004 169.457 5.004C170.241 5.004 170.932 5.13467 171.529 5.396C172.126 5.648 172.654 5.998 173.111 6.446L171.823 7.734C171.552 7.43533 171.221 7.202 170.829 7.034C170.437 6.866 169.98 6.782 169.457 6.782C169 6.782 168.58 6.86133 168.197 7.02C167.824 7.16933 167.497 7.39333 167.217 7.692C166.937 7.98133 166.722 8.33133 166.573 8.742C166.424 9.14333 166.349 9.58667 166.349 10.072C166.349 10.5667 166.424 11.0147 166.573 11.416C166.722 11.8173 166.937 12.1673 167.217 12.466C167.497 12.7553 167.824 12.9793 168.197 13.138C168.58 13.2967 169 13.376 169.457 13.376C170.008 13.376 170.479 13.292 170.871 13.124C171.272 12.956 171.608 12.718 171.879 12.41L173.167 13.698C172.71 14.1553 172.178 14.51 171.571 14.762C170.964 15.014 170.26 15.14 169.457 15.14ZM175.891 15V5.158H177.795V15H175.891ZM177.291 15V13.32H182.737V15H177.291ZM177.291 10.786V9.162H182.247V10.786H177.291ZM177.291 6.838V5.158H182.667V6.838H177.291ZM188.323 15.14C187.529 15.14 186.848 15.0047 186.279 14.734C185.719 14.4633 185.21 14.0573 184.753 13.516L186.013 12.256C186.302 12.6387 186.638 12.9373 187.021 13.152C187.403 13.3573 187.87 13.46 188.421 13.46C188.915 13.46 189.307 13.362 189.597 13.166C189.895 12.97 190.045 12.6993 190.045 12.354C190.045 12.0553 189.961 11.8127 189.793 11.626C189.625 11.4393 189.401 11.2807 189.121 11.15C188.85 11.0193 188.547 10.9027 188.211 10.8C187.884 10.688 187.553 10.562 187.217 10.422C186.89 10.282 186.587 10.1093 186.307 9.904C186.036 9.68933 185.817 9.41867 185.649 9.092C185.481 8.756 185.397 8.336 185.397 7.832C185.397 7.23467 185.541 6.726 185.831 6.306C186.12 5.886 186.517 5.564 187.021 5.34C187.525 5.116 188.094 5.004 188.729 5.004C189.401 5.004 190.007 5.13 190.549 5.382C191.09 5.634 191.533 5.96067 191.879 6.362L190.619 7.622C190.329 7.30467 190.031 7.07133 189.723 6.922C189.424 6.77267 189.083 6.698 188.701 6.698C188.262 6.698 187.917 6.782 187.665 6.95C187.413 7.118 187.287 7.36067 187.287 7.678C187.287 7.94867 187.371 8.168 187.539 8.336C187.707 8.504 187.926 8.64867 188.197 8.77C188.477 8.89133 188.78 9.008 189.107 9.12C189.443 9.232 189.774 9.358 190.101 9.498C190.437 9.638 190.74 9.82 191.011 10.044C191.291 10.268 191.515 10.5573 191.683 10.912C191.851 11.2573 191.935 11.6867 191.935 12.2C191.935 13.1147 191.613 13.8333 190.969 14.356C190.325 14.8787 189.443 15.14 188.323 15.14Z" fill="#996830"/>
</g>
</svg>
